# xmcd CD database file
#
# Track frame offsets:
#	150
#	29008
#	60472
#	89805
#	109052
#	146253
#	175540
#	209112
#	259879
#
# Disc length: 3803 seconds
#
# Revision: 0
# Processed by: cddbd v1.5.2PL0 Copyright (c) Steve Scherf et al.
# Submitted via: CDex 1.51
#
DISCID=840ed909
DTITLE=Dexter Gordon - BLUE NOTE TSF-DEXTER GORDON
DYEAR=1900
DGENRE=Jazz
TTITLE0=Soy Califa
TTITLE1=Le Coiffeur
TTITLE2=Cheese Cake
TTITLE3=Enrie's Tune
TTITLE4=A Night in Tunesia
TTITLE5=Hanky Panky
TTITLE6=You've Changed
TTITLE7=Coppin' the Heaven
TTITLE8=Our Love is Here to Stay
EXTD=
EXTT0=
EXTT1=
EXTT2=
EXTT3=
EXTT4=
EXTT5=
EXTT6=
EXTT7=
EXTT8=
PLAYORDER=
